<?xml version="1.0" encoding="UTF-8"?>
<svg id="Layer_2" data-name="Layer 2" xmlns="http://www.w3.org/2000/svg" viewBox="0 0 303.93 303.93">
  <defs>
    <style>
      .cls-1, .cls-2, .cls-3 {
        stroke-width: 0px;
      }

      .cls-2 {
        fill: #a53d19;
      }

      .cls-3 {
        fill: #fff;
      }
    </style>
  </defs>
  <g id="Layer_1-2" data-name="Layer 1">
    <rect class="cls-2" x="40.98" y="40.98" width="221.96" height="221.96" rx="12" ry="12" transform="translate(-62.95 151.96) rotate(-45)"/>
    <g>
      <path class="cls-3" d="m152.23,262.78c-5.67-.02-10.55-1.81-14.48-5.7-11-10.88-21.92-21.84-32.87-32.77-18.91-18.89-37.79-37.8-56.75-56.64-3.05-3.03-5.53-6.28-6.51-10.52-1.72-7.46,0-14.04,5.38-19.47,14.23-14.38,28.55-28.68,42.81-43.02,4.68-4.71,9.34-9.44,13.97-14.21.79-.82,1.25-.9,2.1-.05,6.71,6.75,13.47,13.46,20.2,20.19.39.39.86.65.46,1.47-3.01,6.22-.36,14.36,5.84,17.39,1.93.94,2.46,1.96,2.45,4.03-.09,18.6-.07,37.19-.02,55.79,0,1.18-.37,1.73-1.4,2.19-6.01,2.71-8.8,9.01-8.08,15,.83,6.84,6.21,12.36,12.51,13.23,7.37,1.02,14.3-3.38,16.55-10.5,2.16-6.85-1.1-14.52-7.61-17.74-.8-.4-1.01-.86-1.01-1.7.02-19.39.03-38.78,0-58.17,0-.73.17-1.13.88-1.44,9.11-3.92,11.99-17.1,2.31-24.8-4.35-3.46-9.23-4.25-14.42-1.94-.64.28-.94.14-1.38-.3-6.79-6.81-13.6-13.61-20.42-20.39-.44-.44-.47-.67,0-1.14,8.1-8.1,16.08-16.32,24.29-24.3,8.21-7.97,20.43-8.2,28.96-.52,7.45,6.7,14.29,14.03,21.37,21.12,22.31,22.36,44.57,44.76,66.89,67.12,2.99,2.99,5.96,5.96,7.36,10.07,2.56,7.53,1.49,14.52-3.93,20.41-7.49,8.13-15.5,15.76-23.31,23.59-22.46,22.5-44.94,44.97-67.41,67.45-4.11,4.11-9.07,6.17-14.73,6.26Z"/>
      <path class="cls-1" d="m182.81,141.83c2.15,0,4.31.03,6.47-.02.89-.02,1.6.28,1.95,1.04.35.75-.06,1.42-.59,2.01-3.87,4.25-7.72,8.51-11.6,12.76-1.3,1.42-2.23,1.36-3.55-.1-3.79-4.19-7.59-8.37-11.38-12.56-.55-.6-1.32-1.17-.88-2.15.44-.99,1.37-.99,2.28-.99,1.79,0,3.57-.06,5.35-.02.84.02,1.2-.25,1.41-1.1,1.67-6.55,4.59-12.46,9.28-17.4,6.03-6.35,13.38-10.08,22.09-11.23,21.2-2.81,38.39,12.24,41.74,30.8,3.33,18.45-7.71,36.05-25.8,41.56-14.11,4.3-28.87-.06-38.28-11.3-1.9-2.27-1.71-4.72.52-6.82,2.21-2.08,4.78-2.2,6.84-.09,2.25,2.3,4.39,4.69,7.2,6.36,5.08,3.03,10.52,3.97,16.36,3.29,6.63-.76,12.1-3.67,16.71-8.39,8.91-9.13,9.41-25.08,1.22-34.88-4.62-5.53-10.42-8.99-17.46-9.97-14.36-1.99-26.13,6.68-29.96,18.79-.03.08.02.19.06.42Z"/>
    </g>
  </g>
</svg>